# xmcd
# 
# Track frame offsets:
#     150
#     16641
#     33082
#     48715
#     63327
#     77055
#     90145
#     107740
#     121757
#     139432
# 
# Disc length: 2083
# 
# Revision: 0
# Processed by: cddbd v1.5.2PL0 Copyright (c) Steve Scherf et al.
# Submitted via: fre:ac v1.0.31
# 
DISCID=7208210a
DTITLE=Christopher Paul Stelling - Best Of Luck
DYEAR=0
DGENRE=Country
TTITLE0=Have To Do For Now
TTITLE1=Lucky Stars
TTITLE2=Trouble Don't Follow Me
TTITLE3=Until I Die
TTITLE4=Made Up Your Mind
TTITLE5=Blue Bed
TTITLE6=Something In Return
TTITLE7=Hear Me Calling
TTITLE8=Waiting Game
TTITLE9=Goodnight Sweet Dreams
EXTD=
EXTT0=
EXTT1=
EXTT2=
EXTT3=
EXTT4=
EXTT5=
EXTT6=
EXTT7=
EXTT8=
EXTT9=
PLAYORDER=
